<svg width="198" height="35" viewBox="0 0 198 35" fill="none" xmlns="http://www.w3.org/2000/svg">
<g clip-path="url(#clip0_322_57)">
<path d="M14.5276 6.32569L2.93301 17.9263L14.4303 29.4236C14.5432 29.5365 14.6328 29.6706 14.6939 29.8181C14.755 29.9657 14.7865 30.1238 14.7865 30.2835C14.7865 30.4432 14.755 30.6013 14.6939 30.7488C14.6328 30.8964 14.5432 31.0304 14.4303 31.1434C14.3174 31.2563 14.1834 31.3459 14.0358 31.407C13.8883 31.4681 13.7302 31.4995 13.5705 31.4995C13.4108 31.4995 13.2526 31.4681 13.1051 31.407C12.9576 31.3459 12.8235 31.2563 12.7106 31.1434L0.356449 18.7831C0.243449 18.6703 0.153806 18.5362 0.0926435 18.3887C0.0314814 18.2411 0 18.083 0 17.9233C0 17.7636 0.0314814 17.6054 0.0926435 17.4579C0.153806 17.3103 0.243449 17.1763 0.356449 17.0634L12.8139 4.60596C13.0455 4.39687 13.3486 4.28485 13.6604 4.29308C13.9723 4.3013 14.2691 4.42915 14.4893 4.65015C14.7095 4.87114 14.8363 5.16836 14.8434 5.48027C14.8506 5.79217 14.7375 6.09487 14.5276 6.32569ZM48.9648 16.9662L36.6107 4.60596C36.3826 4.3779 36.0733 4.24979 35.7508 4.24979C35.4283 4.24979 35.119 4.3779 34.8909 4.60596C34.6629 4.83401 34.5348 5.14331 34.5348 5.46582C34.5348 5.78834 34.6629 6.09764 34.8909 6.32569L46.3882 17.823L34.7876 29.4236C34.5596 29.6517 34.4315 29.961 34.4315 30.2835C34.4315 30.606 34.5596 30.9153 34.7876 31.1434C35.0157 31.3714 35.325 31.4995 35.6475 31.4995C35.97 31.4995 36.2793 31.3714 36.5074 31.1434L48.9648 18.6859C49.0778 18.573 49.1674 18.439 49.2286 18.2915C49.2898 18.1439 49.3213 17.9858 49.3213 17.826C49.3213 17.6663 49.2898 17.5082 49.2286 17.3606C49.1674 17.2131 49.0778 17.079 48.9648 16.9662V16.9662ZM32.0774 0.0969668C31.7816 -0.0288574 31.4479 -0.0323608 31.1495 0.0872238C30.8512 0.206808 30.6123 0.439739 30.4852 0.735031L16.5997 33.2702C16.5367 33.4171 16.5032 33.5749 16.5011 33.7347C16.4991 33.8945 16.5285 34.0531 16.5878 34.2015C16.647 34.3499 16.7349 34.4852 16.8465 34.5996C16.958 34.714 17.091 34.8054 17.2378 34.8684C17.3846 34.9315 17.5425 34.965 17.7022 34.967C17.862 34.9691 18.0207 34.9397 18.1691 34.8804C18.3175 34.8212 18.4527 34.7333 18.5672 34.6217C18.6816 34.5102 18.773 34.3772 18.836 34.2304L32.7215 1.69517C32.7846 1.54799 32.8179 1.3898 32.8197 1.22968C32.8214 1.06957 32.7915 0.910695 32.7316 0.762183C32.6718 0.61367 32.5831 0.478449 32.4709 0.36429C32.3586 0.25013 32.2249 0.159283 32.0774 0.0969668Z" fill="#167DFF"/>
<path d="M73.2425 13.5435C73.8835 13.5435 74.4335 13.7069 74.8923 14.0337C75.3511 14.3605 75.6748 14.8256 75.8633 15.429C76.1148 14.8256 76.5107 14.3605 77.0512 14.0337C77.5918 13.7069 78.1888 13.5435 78.8425 13.5435C81.0423 13.5435 82.1422 14.7754 82.1422 17.2391V22.4809H81.0109V17.2957C81.0109 15.4856 80.2818 14.5742 78.8236 14.5617C77.9437 14.5617 77.2838 14.8508 76.8438 15.429C76.4039 16.0072 76.1839 16.7552 76.1839 17.6728V22.4809H75.0526V17.1826C75.0526 16.3906 74.9017 15.759 74.6 15.2876C74.2984 14.8162 73.8395 14.5742 73.2236 14.5617C72.3185 14.5617 71.5958 14.8791 71.0552 15.5139C70.5147 16.1487 70.2382 17.0317 70.2256 18.163V22.4809H69.0943V16.1267C69.0817 15.6993 69.0503 14.9136 69 13.7697H70.1313C70.1565 14.6999 70.1816 15.209 70.2067 15.297H70.2633C70.5147 14.7565 70.917 14.3291 71.4701 14.0149C72.0231 13.7006 72.6139 13.5435 73.2425 13.5435V13.5435ZM85.8001 18.1253C85.8001 19.1687 86.1269 20.0234 86.7806 20.6897C87.4343 21.3559 88.2576 21.689 89.2507 21.689C90.2814 21.689 91.1142 21.3496 91.749 20.6708C92.3838 19.992 92.7012 19.1435 92.7012 18.1253C92.7012 17.1197 92.3869 16.2775 91.7584 15.5987C91.1299 14.9199 90.2877 14.5742 89.2318 14.5617C88.2136 14.5617 87.3903 14.9011 86.7617 15.5799C86.1332 16.2586 85.8127 17.1071 85.8001 18.1253ZM89.2507 13.5435C90.5831 13.5435 91.6767 13.9771 92.5315 14.8445C93.3863 15.7118 93.8199 16.8055 93.8325 18.1253C93.8325 19.4703 93.3957 20.5671 92.5221 21.4156C91.6484 22.2641 90.558 22.6946 89.2507 22.7072C87.8805 22.6946 86.7775 22.2546 85.9415 21.3873C85.1056 20.52 84.6814 19.4326 84.6688 18.1253C84.6688 16.7803 85.0993 15.6836 85.9604 14.8351C86.8215 13.9866 87.9182 13.556 89.2507 13.5435V13.5435ZM100.507 13.5435C101.639 13.5435 102.471 13.8483 103.006 14.458C103.54 15.0676 103.813 16.0261 103.826 17.3334V22.4809H102.695V17.39C102.695 16.4221 102.515 15.7087 102.157 15.2499C101.799 14.7911 101.249 14.5617 100.507 14.5617C99.5897 14.5617 98.8606 14.8791 98.3201 15.5139C97.7796 16.1487 97.503 17.0317 97.4904 18.163V22.4809H96.3591V16.1267C96.3465 15.7621 96.3151 14.9765 96.2648 13.7697H97.3962C97.4213 14.7628 97.4464 15.2719 97.4716 15.297H97.5282C97.7796 14.7691 98.1787 14.3448 98.7255 14.0243C99.2723 13.7037 99.8662 13.5435 100.507 13.5435V13.5435ZM113.668 17.39C113.668 16.598 113.373 15.9287 112.782 15.3819C112.191 14.8351 111.475 14.5617 110.633 14.5617C109.816 14.5617 109.112 14.8351 108.521 15.3819C107.93 15.9287 107.584 16.598 107.484 17.39H113.668V17.39ZM110.708 13.5435C111.915 13.5435 112.895 13.9332 113.649 14.7125C114.404 15.4919 114.787 16.4975 114.8 17.7294V18.4082H107.484C107.534 19.3886 107.858 20.1774 108.455 20.7745C109.052 21.3716 109.828 21.6764 110.783 21.689C111.374 21.689 111.937 21.5476 112.471 21.2647C113.005 20.9819 113.417 20.6079 113.706 20.1429L114.536 20.8405C113.719 22.085 112.462 22.7072 110.765 22.7072C109.432 22.6946 108.367 22.2609 107.569 21.4062C106.77 20.5514 106.365 19.4515 106.352 18.1065C106.352 16.7992 106.764 15.715 107.587 14.8539C108.411 13.9929 109.451 13.556 110.708 13.5435V13.5435ZM117.364 13.7697L120.249 21.1045L123.058 13.7697H124.265L119.796 25.1395C119.306 26.384 118.502 27.0062 117.383 27.0062C117.031 27.0062 116.66 26.9496 116.27 26.8365L116.384 25.7806C116.798 25.9189 117.138 25.988 117.402 25.988C117.691 25.988 117.949 25.8874 118.175 25.6863C118.401 25.4852 118.621 25.1207 118.835 24.5927L119.645 22.5186L116.101 13.7697H117.364ZM126.792 20.0674C126.792 20.5451 126.983 20.9348 127.367 21.2365C127.75 21.5381 128.225 21.689 128.79 21.689C129.809 21.689 130.566 21.4219 131.062 20.8876C131.559 20.3534 131.807 19.6275 131.807 18.7098V18.1065H130.45C129.293 18.1065 128.394 18.2825 127.753 18.6344C127.112 18.9864 126.792 19.4641 126.792 20.0674V20.0674ZM129.356 13.5435C130.525 13.5435 131.392 13.8137 131.958 14.3543C132.524 14.8948 132.813 15.649 132.825 16.6169V19.2001C132.825 20.6079 132.882 21.7016 132.995 22.4809H131.939C131.864 22.0912 131.826 21.6199 131.826 21.0668H131.788C131.16 22.1604 130.148 22.7072 128.753 22.7072C127.81 22.7072 127.062 22.4746 126.509 22.0095C125.956 21.5444 125.673 20.9159 125.66 20.124C125.66 19.1561 126.078 18.427 126.914 17.9368C127.75 17.4465 128.916 17.2014 130.412 17.2014H131.807V16.6923C131.807 15.9758 131.587 15.4416 131.147 15.0896C130.707 14.7376 130.11 14.5617 129.356 14.5617C128.35 14.5617 127.464 14.8885 126.697 15.5421L126.037 14.7691C126.452 14.3668 126.965 14.062 127.574 13.8546C128.184 13.6472 128.778 13.5435 129.356 13.5435V13.5435ZM139.99 13.5435C141.122 13.5435 141.955 13.8483 142.489 14.458C143.023 15.0676 143.296 16.0261 143.309 17.3334V22.4809H142.178V17.39C142.178 16.4221 141.999 15.7087 141.64 15.2499C141.282 14.7911 140.732 14.5617 139.99 14.5617C139.073 14.5617 138.344 14.8791 137.803 15.5139C137.263 16.1487 136.986 17.0317 136.974 18.163V22.4809H135.842V16.1267C135.83 15.7621 135.798 14.9765 135.748 13.7697H136.879C136.904 14.7628 136.93 15.2719 136.955 15.297H137.011C137.263 14.7691 137.662 14.3448 138.209 14.0243C138.755 13.7037 139.349 13.5435 139.99 13.5435V13.5435ZM146.967 18.1253C146.967 19.1687 147.294 20.0234 147.947 20.6897C148.601 21.3559 149.424 21.689 150.417 21.689C151.398 21.689 152.243 21.3527 152.953 20.6802C153.664 20.0077 154.031 19.1561 154.057 18.1253C154.057 17.1448 153.708 16.3089 153.01 15.6176C152.312 14.9262 151.442 14.5742 150.399 14.5617C149.418 14.5617 148.604 14.8948 147.957 15.561C147.309 16.2272 146.979 17.082 146.967 18.1253V18.1253ZM153.943 8.22626H155.075V22.4809H153.943V20.9536H153.906C153.591 21.5067 153.111 21.9373 152.463 22.2452C151.816 22.5532 151.134 22.7072 150.417 22.7072C149.123 22.7072 148.042 22.2829 147.174 21.4344C146.307 20.586 145.861 19.4829 145.836 18.1253C145.836 16.8306 146.26 15.7496 147.108 14.8822C147.957 14.0149 149.06 13.5686 150.417 13.5435C151.159 13.5435 151.844 13.6975 152.473 14.0054C153.101 14.3134 153.579 14.7439 153.906 15.297H153.943V8.22626V8.22626ZM161.09 8C161.618 8 162.051 8.07542 162.391 8.22626L162.164 9.20674C161.913 9.08104 161.574 9.01819 161.146 9.01819C160.128 9.01819 159.619 9.76612 159.619 11.262V13.7697H161.655V14.7879H159.619V22.4809H158.488V14.7879H156.677V13.7697H158.488V10.8472C158.488 9.99238 158.726 9.3073 159.204 8.79193C159.682 8.27655 160.31 8.01257 161.09 8ZM164.163 20.0674C164.163 20.5451 164.355 20.9348 164.738 21.2365C165.121 21.5381 165.596 21.689 166.162 21.689C167.18 21.689 167.937 21.4219 168.434 20.8876C168.93 20.3534 169.179 19.6275 169.179 18.7098V18.1065H167.821C166.664 18.1065 165.766 18.2825 165.125 18.6344C164.484 18.9864 164.163 19.4641 164.163 20.0674V20.0674ZM166.727 13.5435C167.896 13.5435 168.764 13.8137 169.329 14.3543C169.895 14.8948 170.184 15.649 170.197 16.6169V19.2001C170.197 20.6079 170.253 21.7016 170.366 22.4809H169.31C169.235 22.0912 169.197 21.6199 169.197 21.0668H169.16C168.531 22.1604 167.519 22.7072 166.124 22.7072C165.181 22.7072 164.433 22.4746 163.88 22.0095C163.327 21.5444 163.044 20.9159 163.032 20.124C163.032 19.1561 163.45 18.427 164.286 17.9368C165.121 17.4465 166.287 17.2014 167.783 17.2014H169.179V16.6923C169.179 15.9758 168.959 15.4416 168.519 15.0896C168.079 14.7376 167.482 14.5617 166.727 14.5617C165.722 14.5617 164.835 14.8885 164.069 15.5421L163.409 14.7691C163.824 14.3668 164.336 14.062 164.945 13.8546C165.555 13.6472 166.149 13.5435 166.727 13.5435V13.5435ZM177.362 13.5435C178.003 13.5435 178.553 13.7069 179.012 14.0337C179.47 14.3605 179.794 14.8256 179.983 15.429C180.234 14.8256 180.63 14.3605 181.171 14.0337C181.711 13.7069 182.308 13.5435 182.962 13.5435C185.162 13.5435 186.261 14.7754 186.261 17.2391V22.4809H185.13V17.2957C185.13 15.4856 184.401 14.5742 182.943 14.5617C182.063 14.5617 181.403 14.8508 180.963 15.429C180.523 16.0072 180.303 16.7552 180.303 17.6728V22.4809H179.172V17.1826C179.172 16.3906 179.021 15.759 178.719 15.2876C178.418 14.8162 177.959 14.5742 177.343 14.5617C176.438 14.5617 175.715 14.8791 175.175 15.5139C174.634 16.1487 174.357 17.0317 174.345 18.163V22.4809H173.214V16.1267C173.201 15.6993 173.17 14.9136 173.119 13.7697H174.251C174.276 14.6999 174.301 15.209 174.326 15.297H174.383C174.634 14.7565 175.036 14.3291 175.589 14.0149C176.142 13.7006 176.733 13.5435 177.362 13.5435V13.5435ZM196.104 17.39C196.104 16.598 195.809 15.9287 195.218 15.3819C194.627 14.8351 193.91 14.5617 193.068 14.5617C192.251 14.5617 191.547 14.8351 190.956 15.3819C190.366 15.9287 190.02 16.598 189.919 17.39H196.104V17.39ZM193.144 13.5435C194.35 13.5435 195.331 13.9332 196.085 14.7125C196.839 15.4919 197.223 16.4975 197.235 17.7294V18.4082H189.919C189.97 19.3886 190.293 20.1774 190.89 20.7745C191.488 21.3716 192.264 21.6764 193.219 21.689C193.81 21.689 194.372 21.5476 194.907 21.2647C195.441 20.9819 195.853 20.6079 196.142 20.1429L196.971 20.8405C196.154 22.085 194.897 22.7072 193.2 22.7072C191.868 22.6946 190.802 22.2609 190.004 21.4062C189.206 20.5514 188.801 19.4515 188.788 18.1065C188.788 16.7992 189.2 15.715 190.023 14.8539C190.846 13.9929 191.887 13.556 193.144 13.5435V13.5435Z" fill="black"/>
</g>
<defs>
<clipPath id="clip0_322_57">
<rect width="197.235" height="34.9671" fill="white"/>
</clipPath>
</defs>
</svg>
