<svg width="24" height="24" viewBox="0 0 24 24" fill="none" xmlns="http://www.w3.org/2000/svg">
<path d="M20.354 15.354C18.7172 16.0122 16.9231 16.1748 15.1946 15.8217C13.4662 15.4686 11.8796 14.6153 10.6322 13.3678C9.38472 12.1204 8.53139 10.5338 8.17827 8.80535C7.82514 7.0769 7.98779 5.28277 8.64599 3.646C6.7077 4.42673 5.10135 5.85739 4.10232 7.69272C3.10328 9.52805 2.77378 11.6537 3.17031 13.7054C3.56683 15.757 4.66467 17.6069 6.27565 18.9378C7.88662 20.2687 9.91037 20.9977 12 21C13.7969 21.0001 15.5527 20.4624 17.0415 19.4562C18.5303 18.45 19.684 17.0213 20.354 15.354Z" stroke="#313130" stroke-width="2" stroke-linecap="round" stroke-linejoin="round"/>
</svg>
